<?xml version="1.0" encoding="UTF-8" standalone="no"?><svg xmlns="http://www.w3.org/2000/svg" xmlns:xlink="http://www.w3.org/1999/xlink" fill="#000000" height="344.7" preserveAspectRatio="xMidYMid meet" version="1" viewBox="-0.6 -0.6 501.2 344.7" width="501.2" zoomAndPan="magnify"><g id="Illustration"><g id="change1_1"><path d="M176.4645081 56.2486992L8.0251274 56.2486992 251.575058 271.8294067 495.125 56.2486992z" fill="#20cd8d"/></g><g id="change2_1"><path d="M494.5234375,344.0671387H5.4765663c-3.0242548,0-5.4762812-2.4520264-5.4762812-5.4762878V5.4762812 C0.0002852,2.4520261,2.4523115,0,5.4765663,0h489.046875c3.0242615,0,5.4762878,2.4520261,5.4762878,5.4762812v333.114563 C499.9997253,341.6151123,497.547699,344.0671387,494.5234375,344.0671387z M10.9528475,333.1145935h478.0942993V10.9525623 H10.9528475V333.1145935z" fill="#20cd8d"/></g><g id="change2_2"><path d="M250,235.8143311c-1.3289642,0-2.6579285-0.4813232-3.7061157-1.4439392L1.7704502,9.5059471 C-0.4569629,7.4603634-0.601357,3.9949043,1.4442265,1.7701651S6.957943-0.6043162,9.182682,1.4466152L250,222.8990784 L490.8173218,1.4466152c2.2247314-2.0509315,5.6901855-1.9011893,7.7384644,0.3235499 c2.0455627,2.2247391,1.9011841,5.6901984-0.3262329,7.7357821L253.7061157,234.3703918 C252.6579285,235.3330078,251.3289642,235.8143311,250,235.8143311z" fill="#20cd8d"/></g><g id="change2_3"><path d="M5.4765663,344.0671387c-1.4706812,0-2.938688-0.5882568-4.0162959-1.7541199 c-2.0562792-2.2193909-1.9252551-5.6821899,0.2941362-7.7384644l180.4338226-167.1896667 c2.2140503-2.0536041,5.6821899-1.930603,7.7384644,0.2941284c2.0562744,2.2193909,1.9252472,5.6821747-0.2941437,7.7384644 L9.1987257,342.6071472C8.1451836,343.5831604,6.8108749,344.0671387,5.4765663,344.0671387z" fill="#20cd8d"/></g><g id="change2_4"><path d="M494.5234375,344.0671387c-1.3343201,0-2.6686096-0.4839783-3.722168-1.4599915L310.3674316,175.4174805 c-2.2193909-2.0562897-2.3504028-5.5190735-0.2941284-7.7384644s5.5217285-2.3477325,7.7384644-0.2941284l180.4338379,167.1896667 c2.2193909,2.0562744,2.3504028,5.5190735,0.2941284,7.7384644 C497.4621277,343.4761963,495.9941101,344.0671387,494.5234375,344.0671387z" fill="#20cd8d"/></g></g></svg>