<?xml version="1.0" encoding="UTF-8"?><svg xmlns="http://www.w3.org/2000/svg" xmlns:xlink="http://www.w3.org/1999/xlink" height="494.9" preserveAspectRatio="xMidYMid meet" version="1.0" viewBox="0.0 0.0 500.0 494.9" width="500.0" zoomAndPan="magnify"><g id="Illustration"><g id="change1_1"><path d="M466.0925903,494.8659668H306.1483765c-18.7265625,0-33.9074097-15.1808472-33.9074097-33.9074097V69.1650925 c0-18.7265434,15.1808472-33.9074059,33.9074097-33.9074059h159.9442139C484.8191223,35.2576866,500,50.438549,500,69.1650925 v391.793457C500,479.6851196,484.8191223,494.8659668,466.0925903,494.8659668z" fill="#04bb9c"/></g><g id="change2_1"><path d="M442.9728699,482.7961731H37.5282631C16.8350811,482.7961731,0,465.9610901,0,445.2649841V37.5282631 C0,16.8350811,16.8350811,0,37.5282631,0h405.4446106c20.6931763,0,37.5282593,16.8350811,37.5282593,37.5282631v407.7367249 C480.5011292,465.9610901,463.6660461,482.7961731,442.9728699,482.7961731z M37.5282631,11.9446545 c-14.1055431,0-25.5836086,11.4780655-25.5836086,25.5836086v407.7367249 c0,14.1084595,11.4780655,25.5865173,25.5836086,25.5865173h405.4446106c14.1055603,0,25.5836182-11.4780579,25.5836182-25.5865173 V37.5282631c0-14.1055431-11.4780579-25.5836086-25.5836182-25.5836086H37.5282631z" fill="#04182d"/></g><g id="change2_2"><path d="M182.0072632,368.4208374c-1.5280762,0-3.0561523-0.5832214-4.2226257-1.7496948l-90.6201553-90.6201477 c-2.3329391-2.3329468-2.3329391-6.1123047,0-8.4452515c2.3329391-2.3329163,6.1123047-2.3329163,8.4452438,0 l86.3975372,86.3975525l202.8841553-202.8812561c2.3329468-2.3329315,6.1123047-2.3329315,8.4452515,0 c2.3329163,2.3329468,2.3329163,6.1123047,0,8.4452515L186.2298737,366.6711426 C185.0634003,367.837616,183.5353241,368.4208374,182.0072632,368.4208374z" fill="#04182d"/></g></g></svg>